<svg viewBox="0 0 512 512">


  <g>
    <path d="M252.6,374c-42.6-15.5-77.1-48.7-100.5-88.4-17.7,2.4-34.6,6.6-51.5,12.3l-40.7,13.7c-15.6,5.1-30.9,9-46.9,12.1-4.6.9-8.7,2.2-13.2,4.2,2.6,4.5,5.2,8,8.5,11.7,11.5,12.5,21.9,25.4,31.7,39.5l21.7,31.3c26.3,38,53.4,63.9,95.8,81.2,37.4,15.7,80.3,20.7,120.1,8.4-22.8-36.8-29.5-82.3-25.2-126.1Z"
          fill="#e84200" />
    <path d="M224.4,301.6c11.1,10,23,18.3,37.5,24.8,15-50.6,39.4-91.3,76.8-126.5,10-9.4,20.2-17.8,31-26.4-4.9-15.9-11.8-30.4-20.1-44.5-14.1-23.9-32.3-43.9-54.6-59.5-10-7-19.9-13.1-30.7-18.8l-36.6-19.5c-13.5-7.2-25.9-15.2-38.3-24.1-3.9-2.8-7.5-4.8-12.2-7.2-1,5.5-1.6,9.7-1.8,14.7-.6,15.7-1.7,30.8-4.2,46.4l-6.8,42.3c-9.2,57.5-3.9,99.9,22.7,150.6,10,18,22.1,33.9,37.2,47.6Z"
          fill="#e84200" />
    <path d="M488.6,212.1c-4.8-16.1-8.3-32-10.9-48.7-.9-5.4-2-10-4-15.6-4.6,3-8.2,6-12,9.8-11.2,11.1-22.6,21.5-35.1,31.1l-32.4,24.9c-35.5,27.2-61.3,54.7-79,97.5-14.9,35.9-22.1,73.6-16.7,112,3.6,25.1,13.1,50.9,31.3,68.6,16.3,15.9,37.8,22.7,59.9,19.5,24.1-3.6,46.4-18,63.7-35.7,29.7-30.3,47-69.6,54.9-111.7,7.6-39.8,2.9-75.2-8.3-113.1l-11.4-38.6Z"
          fill="#e84200" />
  </g>
  </g>
  <g id="Layer_1_copy">
    <g id="_x31_DH6ol">
      <path d="M164.3,495.1c44,16.7,94.7,18.7,138.6-1.5,28.5,21.3,63.7,23.5,96.3,10.8,33.4-13.1,60.5-39.8,79.4-70.8,10.6-17.4,18.2-35.8,23.9-55.4,10-34.4,12-69.9,5.7-104.8-2.6-14.4-6.1-28.1-10.3-42l-7.9-25.9c-3.4-11.1-6.2-22.5-7.9-34.1-2.1-14.1-6.6-26.7-17.4-35.7-14.2-11.9-33.4-9.9-48.2.5-4.4,3.2-8.3,6.5-12.1,10.4-6.1,6.1-12.3,11.7-19.4,17.2-14.8-38.6-40.1-71.7-72.7-95.1-12.2-8.8-24.7-16.2-38-23.1l-24.3-12.6c-10.5-5.4-20.2-11.4-29.8-18.3-6.4-4.6-13-8.4-20.6-10.2-21.7-5.1-40.6,6.7-47.4,28.4s-2.8,13.4-3,20.3c-.3,10.4-1.1,20.3-2.8,30.6l-5.9,35.7c-7.2,43.6-6,84,9.5,125.5-12.7,2.5-24.9,5.3-37.1,9.4l-34.8,11.7c-11.4,3.9-22.5,7.1-34.3,9.2-14.6,2.7-27.6,8-36.6,20.9-10.1,14.5-8.3,33.4.9,47.3,2.9,4.4,6,8.3,9.5,12.1,7.2,7.7,13.7,15.6,19.8,24.4l17.8,25.6c29.6,42.5,60.3,71.1,109.1,89.4ZM261,316.7c-12.3-5.4-22.4-12.4-31.9-20.8-12.8-11.5-23.1-24.8-31.6-40-22.6-42.6-27.1-78.1-19.3-126.4l5.7-35.5c2.1-13.1,3.1-25.8,3.6-39,.2-4.2.6-7.8,1.5-12.4,4,1.9,7,3.6,10.4,6,10.5,7.5,21.1,14.2,32.5,20.3l31.1,16.4c9.2,4.8,17.6,9.9,26.1,15.8,18.9,13.1,34.4,29.9,46.4,50,7,11.8,12.9,24,17.1,37.3-9.2,7.2-17.8,14.2-26.4,22.2-31.8,29.6-52.5,63.8-65.2,106.2ZM318.6,455.5c-15.5-14.9-23.5-36.5-26.6-57.6-4.6-32.2,1.5-63.9,14.2-94.1,15.1-36,37-59.1,67.2-81.9l27.6-20.9c10.6-8.1,20.3-16.8,29.8-26.1,3.2-3.2,6.3-5.7,10.2-8.2,1.7,4.7,2.7,8.6,3.4,13.1,2.2,13.9,5.2,27.3,9.3,40.9l9.7,32.4c9.5,31.8,13.5,61.5,7.1,95-6.8,35.3-21.5,68.3-46.7,93.8-14.7,14.9-33.6,27-54.2,30-18.8,2.8-37.1-3-50.9-16.3ZM91.1,387.3l-18.4-26.3c-8.3-11.9-17.2-22.7-26.9-33.2-2.9-3.1-5.1-6.1-7.2-9.8,3.8-1.6,7.2-2.8,11.2-3.5,13.6-2.6,26.6-5.9,39.8-10.2l34.5-11.5c14.3-4.8,28.7-8.4,43.7-10.4,19.9,33.3,49.2,61.2,85.4,74.2-3.7,36.7,2,75,21.4,105.9-33.8,10.4-70.3,6.2-102.1-7-36-14.5-59-36.3-81.4-68.2Z"
            fill="#6a4600" />
    </g>
  </g>
  <g id="Layer_1_copy_2">
    <g>
      <path d="M259.1,354.6c-40.6-14.6-73.6-46-95.9-83.4-16.9,2.2-33,6.3-49.1,11.6l-38.8,13c-14.9,4.8-29.5,8.5-44.8,11.4-4.4.8-8.3,2.1-12.6,4,2.4,4.2,4.9,7.6,8.1,11,11,11.8,20.9,24,30.3,37.3l20.7,29.5c25.1,35.8,51,60.3,91.4,76.6,35.7,14.9,76.7,19.5,114.7,7.9-21.8-34.7-28.2-77.7-24-118.9Z"
            fill="#f9835f" />
      <path d="M228.9,306.8c10.5,9.3,21.6,17,35.2,23,14.1-47,37-84.8,72.2-117.5,9.4-8.8,19-16.5,29.2-24.5-4.6-14.8-11.1-28.2-18.9-41.3-13.2-22.2-30.4-40.8-51.3-55.3-9.4-6.5-18.7-12.1-28.9-17.5l-34.4-18.1c-12.7-6.7-24.3-14.1-36-22.4-3.7-2.6-7-4.5-11.5-6.7-1,5.1-1.5,9-1.7,13.7-.5,14.6-1.6,28.7-3.9,43.1l-6.4,39.3c-8.6,53.4-3.7,92.8,21.3,139.9,9.4,16.8,20.8,31.5,34.9,44.2Z"
            fill="#f9835f" />
      <path d="M458.5,211c-4.3-14.4-7.5-28.7-9.9-43.6-.8-4.9-1.8-9-3.6-14-4.1,2.7-7.4,5.4-10.9,8.7-10.2,10-20.5,19.3-31.8,27.9l-29.4,22.3c-32.2,24.4-55.6,49-71.7,87.4-13.5,32.1-20.1,66-15.1,100.4,3.2,22.5,11.9,45.6,28.4,61.5,14.8,14.3,34.3,20.4,54.3,17.4,21.9-3.2,42.1-16.1,57.8-32,26.9-27.2,42.6-62.4,49.8-100.1,6.9-35.7,2.6-67.4-7.5-101.4l-10.3-34.6Z"
            fill="#f9835f" />
    </g>
  </g>
</svg>